<svg xmlns="http://www.w3.org/2000/svg" viewBox="0 0 128 128">
<!-- SVG created with Arrow, by QuiverAI (https://quiver.ai) -->
  <style type="text/css">.cls-0 {fill:#451A36;}
.cls-1 {fill:#F7F0D9;}
.cls-2 {fill:#F5CFBF;}
.cls-3 {fill:#BFA08C;}
.cls-4 {fill:#CE6B50;}
.cls-5 {fill:#9DAE92;}
.cls-6 {fill:#CAA186;}
.cls-7 {fill:#451A36;}
.cls-8 {fill:#451A36;}
.cls-9 {fill:#F7EFDC;}
.cls-10 {fill:#9CAE92;}
.cls-11 {fill:#607564;}
.cls-12 {fill:#FCF3DF;}
.cls-13 {fill:#A6762D;}
.cls-14 {fill:#CCA147;}
.cls-15 {fill:none;stroke:#FBF3DB;stroke-width:1.5375;stroke-linecap:round;stroke-linejoin:round;stroke-miterlimit:10;}
.cls-16 {fill:none;stroke:#FBF3DD;stroke-width:1.5375;stroke-linecap:round;stroke-linejoin:round;stroke-miterlimit:10;}
.cls-17 {fill:none;stroke:#FBF3DD;stroke-width:1.5375;stroke-linecap:round;stroke-miterlimit:10;}</style>
  <path class="cls-0" d="m106.4 34.9-5.4-5.3-22.4 22.4-52 33.3-18.6 5.7 5.6 5.7c1.4 1.4 3.1 2.3 5.3 2.3h55.1l5.8 10.4c1.2 1.3 2.6 2.2 4.4 2.2h27.4c5.1 0 10.4-4.2 10.4-10.6v-30.6c0-1.5-0.5-2.9-1.4-3.8l-11.7-9.8v-16.6c0-2.1-0.8-4.1-2.5-5.3z"/>
  <path class="cls-1" d="m96.4 27.6h-84.1c-3.1 0-6.1 2.7-6.1 6.1v52.2c0 3.4 2.7 6.9 6.2 6.9l61.8 0.1 18.3-5.1 10.1-24.2 0.1-29.9c-0.2-3.4-2.6-6.1-6.3-6.1z"/>
  <path class="cls-2" d="m85.3 27.6c-0.9 13.5-4.4 26.4-10.7 35.1-4.7 6.7-17.4 19.7-28.3 29.9l22.6 0.1 16.5-2 17.3-28.5v-28.1c0-3.7-2.5-6.5-5.8-6.5h-11.6z"/>
  <path class="cls-3" d="m68.9 69.4v23.3l6 0.1 1.3-31.6c-2.1 1.4-3.2 4.4-7.3 8.2z"/>
  <path class="cls-2" d="m96.6 27.6h-11.3c-0.3 4-1.4 12.2-3 17.7l12.1 4.3 8.3 10.2-0.1-25.7c0-3.6-2.4-6.5-6-6.5z"/>
  <path class="cls-0" d="m63.8 37.9h-18.6c-1.3 0-2.6-1.1-2.6-2.5s1.1-2.6 2.6-2.6h18.6c1.3 0 2.5 1 2.5 2.6s-1.2 2.5-2.5 2.5z"/>
  <path class="cls-2" d="m64.1 27.6-4.6-0.1-0.2 5.3h4.7z"/>
  <path class="cls-0" d="m65.8 27.6v-4.2c0-1.4-1.2-2.8-2.7-2.8h-1.1v7.1l3.8-0.1z"/>
  <path class="cls-2" d="m47.1 32.8c0.1 1.3 1 2.5 2.6 2.5h9.8c1.3 0 2.4-1.1 2.4-2.4v-13.7c0-1.2-0.9-2.7-2.5-2.7h-9.7c-1.3 0-2.6 1-2.6 2.6v13.7z"/>
  <path class="cls-5" d="m58.4 16.5v5.9c0 5.3-4 10.4-11.3 10.4 0 1.3 1 2.5 2.6 2.5h9.8c1.3 0 2.4-1 2.4-2.3v-13.7c0-1.3-0.9-2.8-2.5-2.8h-1z"/>
  <path class="cls-4" d="m91.6 51.2h-36.6c-1.4 0-2.7-1.1-2.7-2.9 0.1-1.3 1.2-2.5 2.6-3l36.8 0.1c1.7-0.3 2.7 1 2.8 2.4 0 2.1-1.5 3.5-2.9 3.4zm-24.5 6.4h-12.1c-1.4 0-2.7 1.2-2.7 2.8s1.3 2.9 2.8 2.9h11.8c2 0.1 3.1-1.2 3.1-2.8-0.1-1.5-1.1-2.9-2.9-2.9z"/>
  <path class="cls-6" d="m42.1 43.4h-25.1c-1.3 0-2.6 1.1-2.6 2.7v30.3l15.8-0.5 14.5 0.1v-30.2c-0.2-1.4-1.3-2.4-2.6-2.4z"/>
  <path class="cls-2" d="m19 45.4c-1.2 0-2.7 0.8-2.7 2.7v26.7l28.4 3.9v-33.3h-25.7z"/>
  <path class="cls-7" d="m42.4 73.6c-0.9-0.4-5.5-2.4-6.8-3-1.6-1-1.7-2-1.6-3.5 1.1-1 2-3.3 2.3-4.1 0.1 0 1-0.2 1.3-2.3 0.3-1.7-0.5-2.2-0.6-2.1 0.4-4-0.1-6.6-2.4-7.3-0.7-1-2.2-2.1-5-2.1-4.6 0-7.6 2.6-7.6 7 0 0.8 0.1 1.8 0.2 2.4-0.3 0-0.9 0.7-0.8 1.6 0.2 2.7 1.4 2.9 1.3 2.9 0.3 1.2 1.3 3.2 2.2 4 0.1 1.5 0.3 2.9-2 3.8-1.8 0.7-5 2.1-6.2 2.7-1.3 0.7-2.1 2-2.1 3.3v2.7c0.1 1.4 1.2 2.7 2.5 2.7h24.9c1.4 0.1 2.7-1.1 2.7-2.5v-2.8c0-1.6-0.7-2.6-2.3-3.4z"/>
  <path class="cls-9" d="m74 71v30.5c0 2.4 1.6 4.3 4.1 4.3h27.9l10.5-10v-24.7l-22.5-2-20 1.9z"/>
  <path class="cls-2" d="m105.9 105.8v-6.2c0.1-1.8 1.7-3.8 4-3.8h6.5l-10.5 10z"/>
  <path class="cls-10" d="m116.4 71.1v-7.1c0-1.8-1.6-4.2-4-4.2h-33.8c-2.4 0-4.6 1.3-4.6 4.5v6.7l42.4 0.1z"/>
  <path class="cls-11" d="m88.6 57.4-2.5-2.3-3.3 9.5 1.1 1.3c1.6 2 4.4 1.1 4.4-1.3v-4.8c0.6-0.7 0.8-1.4 0.3-2.4z"/>
  <path class="cls-11" d="m104.2 64.6 1.2 1.3c1.6 2 4.5 0.9 4.5-1.3v-4.8h-4.5l-1.2 4.8z"/>
  <path class="cls-12" d="m84.3 55c-1.3 0-2.2 1-2.2 2.2v6.2c0 1.2 0.9 2.1 2.2 2.1s2.1-1 2.1-2v-6.3c0.1-1.2-0.9-2.3-2.1-2.2zm21.6 0c-1.3 0-2.3 1-2.3 2.2v6.2c0 1.2 1 2.1 2.3 2.1 1.2 0 2.3-0.9 2.3-2.1v-6.2c0-1.2-1.1-2.3-2.3-2.2z"/>
  <path class="cls-13" d="m103.8 79.8c-3.2-3.5-8.1-5.1-13-2.7-6.4 3.2-8.8 11.6-3 18.2 1.3 1.2 3.3 2.7 5.1 2.4l5.1-2.7 6.2-8.5-0.4-6.7z"/>
  <path class="cls-14" d="m104.2 80.4c-2.7-2.3-6.6-3.7-11.4-1.6-7.4 3.6-8.8 12.2-4.1 17.4 3.2 2.7 8.4 3.7 12.7 1 5.7-3.7 6.5-11.5 2.8-16.1v-0.7z"/>
  <path class="cls-15" d="m95.2 81.8v5.5l3.1 3.2"/>
  <path class="cls-16" d="m95.2 78.5v0.7"/>
  <path class="cls-17" d="m95.2 95.5v0.8"/>
  <path class="cls-16" d="m102.9 87.3h0.9"/>
  <path class="cls-17" d="m86.5 87.3h0.8"/>
</svg>