<svg xmlns="http://www.w3.org/2000/svg" viewBox="0 0 115 115">
<!-- SVG created with Arrow, by QuiverAI (https://quiver.ai) -->
  <style type="text/css">.cls-0 {fill:#341026;}
.cls-1 {fill:#6A2E47;}
.cls-2 {fill:#4C1830;}
.cls-3 {fill:#934B5F;}
.cls-4 {fill:#6A2D47;}
.cls-5 {fill:#CD684A;}
.cls-6 {fill:#AF4B31;}
.cls-7 {fill:#8E3A1F;}
.cls-8 {fill:#F8EDCF;}
.cls-9 {fill:#E5CEAE;}
.cls-10 {fill:#DBA64B;}
.cls-11 {fill:#B17228;}
.cls-12 {fill:#FAF0D4;}
.cls-13 {fill:#AE677E;}
.cls-14 {fill:#85937A;}
.cls-15 {fill:#AA502E;}
.cls-16 {fill:#8F3715;}</style>
  <path class="cls-0" d="m108.6 54c-0.1-1-0.8-1.8-1.8-2l-6.1-1c-1.4-6.4-3.3-9.3-3.3-9.3s2.2-1.9 5.1-4.7c0.9-0.9 1.1-2.4 0.5-3.4-1-1.9-2.6-4.4-4-6.1l5.1-8.5c0.5-0.8 0.2-1.8-0.4-2.4l-3.4-3.2-7.5 4c-1.8-1.2-4.5-3.1-6.5-4.4-0.9-0.5-2.3-0.4-3 0.3l-4.9 4.7c-2.6-1-5.1-1.8-7.4-2.2l-1-6.1c-0.2-1-1-1.7-2.1-1.7l-5.8-0.3-1.9 0.8v7.5c-3.7 0.7-7.2 1.7-10.4 3l-0.5-0.5h-4.3l-5.1 6.5 5.6 8.6s4.4 4.7 5.4 5.3c1.1 0.7 0.8 1 2 0.3 6.8-3.6 15.8-5.2 25.2 0.4l-13.5 13.5-9.9-10.1c-2.6-3-1-6-1.1-8-0.1-4.4-1.5-8.2-5.2-12.2-6.1-6.8-15.1-5.8-16.7-5.2-1.4 0.5-1.9 2-0.8 3l6.4 6.5c3.1 2.6 0.6 7-1 9-1.7 1.5-6.2 4-8.7 1.6l-8-8c-0.9-1-2.4-0.7-2.8 0.9-0.5 2.1-1.1 10.2 5.1 16 1.2 1.1 6.2 4.9 12 4.9 1.7 0 3.7-1 6.3 0.5 0.4 0.2 0.7 0.5 1.1 0.9l10.8 11.2-2.8 2.8-2.9-2.9c-0.8-0.8-2.1-0.8-2.8 0l-1.5 1.5c-0.4 0.4-0.6 1-0.5 1.7v0.8c0 2.2-2.4 4.2-4.6 4h-0.4c-4.2-8.6-2.2-16.9-0.2-20.9h-0.8c-5.9-0.4-9.5-3.3-11.3-5.1l-2.8 5-1 4-6.1 1c-0.9 0.2-1.8 1-1.9 2-0.3 2.7-0.3 6.1 0 8 0.1 1.1 0.9 1.9 1.9 2l6 1c0.5 2.6 1.3 5.2 2.2 7.1l-4.6 4.4c-0.9 0.9-6.6 1.6-6 2.5l3.5 5.9 4.6 2.5 3.3 2.1 1.6 5 1.5 3 0.6 2.7c1 3.7 3.4 3.9 6.9 4.3 3 0.2 5.7-0.6 7.7-2.5l5.4-5.3c2.7 1 5.3 1.9 7.4 2.3l1 3.7c0.2 0.9 1 1.6 2 1.7 1.8 0.2 5.9 0.2 8.4 0 1-0.1-0.4-1.4-0.4-2.4l1-6c2.7-0.5 5.1-1.1 7.6-2l4.9 2.4 3.9 3.4c3 2.9 7.8 4.3 12.2 3.7l1-0.1c1.2-0.3 1.6-1.7 0.8-2.5l-6.9-7c-1.1-1-1.3-2.2-1.1-3.4 0.2-1.8 1.6-4.4 3-5.3 1.7-1.1 4.7-2.5 6.6-1.1l5.6 5.4 0.2 0.2c0.8 0.9 2.2 2 2.6 0.6l0.1-0.2c1.4-5.6-0.6-12.1-5-15.6l-2-1.9c0.9-2.4 1.6-5.1 0.8-6.6l5.8-1c1-0.1 2-0.9 2-2 0.3-2.3 0.3-6.3 0-9zm-49.6 33c-2.5 0-5.3-0.6-7.4-1.5l0.5-0.5v-1.1c-0.1-2.5 2-4.4 4-6h1c0.6 0.1 1.2 0 1.6-0.5l1.7-1.7c0.7-0.7 0.7-2.2 0-3.1l-3.4-3.6 2-2.1 12.9 13.6c-3.6 2.2-7.8 6.5-12.9 6.5zm23.6-14c-2.9-3.3-7.5-8-11.7-12.5l12.6-12.8c5.5 6 7.2 16.7 2.6 23.3-0.1 0.6-2 3.1-3.5 2z"/>
  <path class="cls-1" d="m106.1 51.4c-0.1-0.9-0.9-1.8-1.9-1.9l-6.6-1.1c-0.6-2.7-1.4-5.4-2.5-8.4 0.9-0.8 2.9-2.5 4.6-5.1 0.9-0.9 1.2-2.4 0.5-3.5l-3.6-6.7-5.6-2.8-4.1-5.5c-1.3-0.9-3.3-2.3-5.4-3.6-0.9-0.4-2.5-0.3-3.4 0.6l-4.8 4.7c-2.1-0.7-4.6-1.7-9.2-2.7l-1-6.8c-0.2-1-1-1.9-2.1-1.9l-4.1-0.2-5.4 0.4-2.2 8.3c-2.8 0.5-6.2 1.2-7.9 2.2l-4.8 5-5.9 2.3-1.8 5.4-2.6 3.3c-0.6 1.1-0.3 3 0.6 3.7 3 2.5 7.2 3.1 9.7 8.9 1.4 1.6 0.8 2.1 2.4 2.4 0 0 1 0.6 1.5 0.6 0.2 0 0.5-3.1 2.5-1.5v-1.5c2-4.4 3.7-5.6 4.9-6.5 1.2-0.8 0-0.5 0.1-0.5 3-1.4 5.6-3 9.9-8 5.1 0 9 1.6 14.8 3.1l-13.3 13.5 5.3 8.5 12.7-12.6c5.2 0.4 9.8 14.9 3.2 26.4 1.4 1.3 3 1.7 4.9 1.1 1-0.4 1.1 0.7 1 1l5.9 5.6 3.2-2.9c1.1-1.8 2-5.3 1.9-6.3v-0.4-0.5-0.4l6.7-4c1-0.1 1.9-1 2-2 0.3-2.2 0.3-7.1-0.1-9.7z"/>
  <path class="cls-2" d="m56.5 22.5c-5.5 0-9.8 1.1-14.5 3.1l7.5 3.6c1.5-0.5 4.6-1.1 7-1.1 5.2 0 11 1.5 16.5 5.5l4.5-3.9c-3.4-2.6-9.9-7.2-21-7.2z"/>
  <path class="cls-2" d="m68.5 81.6c-2.8 1.5-6.4 3-12.1 3-3.8 0-6.9-0.7-10-2.2l-4.4 3.6-0.1 2.1 5.6 1.9 8.9 0.4c5.3 0.1 9.7-1.4 13.2-2.4l2.8-3.9-3.9-2.5z"/>
  <path class="cls-4" d="m31.4 68c1 0 1.1 0 1.5-0.4-1.9-5-2.9-11.2 0.3-20l0.8-0.8-0.9-0.8 1.8-5-8.2-2.5c-0.8 1.5-1.7 4.5-1.8 5.1-3.9 12.5-0.9 21 1.1 25.5l5.4-1.1z"/>
  <path class="cls-4" d="m27 15.1c-4 1.8-9 6.9-11.6 10.4l5.1 4.9c2.5 2.6 7.1 0 8.9-1.4 1.5-2 4-6.4 1.5-8.9l-4.9-4.9z"/>
  <path class="cls-4" d="m84.4 35.4c3.1 4 5.7 9.7 5.8 17.7 0.2 7.6-1.3 13-3.7 17.9l3.1 1 4.3 0.5c3-3.9 3.6-8.3 3.6-8.3l-2-13.2v-2.5l-1-8-3-6-3-2-4.1 2.9z"/>
  <path class="cls-4" d="m38.9 94.1 4.1 1.4 5.4 1.9 1.1 6.6c0.2 1 1 1.9 2.1 2 2.4 0.2 5.9 0.4 8.9 0 1.1 0 2.1-0.9 2.4-1.9l1.1-6.7c2.5-0.5 4.6-0.9 7.5-2.3l-1.6-7.5c-3.8 1.4-7.8 2.8-13.5 2.8-4.3 0-9-0.9-12.3-2.4l-5.2 6.1z"/>
  <path class="cls-0" d="m87.6 88.9 1.8 2.8c0.5 1.3 0.1 2.7-1.3 3.7l-2.2 1.6 0.8 3.9 3-2.2 0.8-0.7c0.6-0.5 1.1-1.3 1-3-0.5-1.3-1.5-3-3.4-6.4l-0.5 0.3z"/>
  <path class="cls-4" d="m85.5 96.5c0-0.1 1.9-0.6 2.5-1.5 1.5-1 1.7-2.5 1-3.6l-1.6-2c-1 1.1-2.7 4.3-1.9 7.1z"/>
  <path class="cls-3" d="m99.9 13.4-1.8-1.9-3 2 2.9 15 6.1-9.5c0.5-0.8 0-2-0.1-2l-4.1-3.6z"/>
  <path class="cls-3" d="m99.9 76.7 1.7 11 2.5 7.9 0.5 0.1c0.8 0 1.8-0.1 2.1-1.3 0.7-3.9 0.8-10.4-5.7-16.7l-1.1-1z"/>
  <path class="cls-3" d="m29.5 98.1-6.6 5.9h-12.3l1 1c2.4 2.5 4.9 3.5 7.9 3.5 2.6 0 4.9-0.9 6.9-2.6l5.7-5.4-2.6-2.4z"/>
  <path class="cls-4" d="m8.8 63.3 0.2 0.4c0.1 0.9 0.9 1.7 1.9 1.9l4.6 0.8-0.5-2.2-6.2-0.9z"/>
  <path class="cls-5" d="m45.2 29.3c0.5-5.1-1.1-9.3-4.2-13.6-5.6-6.6-12.6-7-16.6-6.2-1.8 0.2-2.5 2-1.5 3.1l7.7 7.5c3 2.6 0.5 6.9-1 8.9-1.9 1.5-6.1 4-8.7 1.4l-8.5-7.9c-1-0.6-2.4-0.3-2.8 1.2-0.7 3.3-0.9 12.3 6.9 17.7 3.1 2.3 7.2 4.2 12.9 3.6 1.6-0.1 3.7-0.4 6.1 2l19.1 20 4.9-5.4-18.9-17c-1.2-1.1-1.2-3.2 0-4.5 1.3-1.4 3.3-1.4 4.5-0.1l17.4 18.1 3.5-2.6-19.1-21.4c-1.5-1.6-1.9-4.5-1.7-4.8z"/>
  <path class="cls-5" d="m101 77.6-1.4-1.5c-2.7-2.7-6.4-5.6-13.1-5.4-2.1 0.2-3.8 0.2-6-1.2l-16-16.5-10.4 12.5 14.4 16.1c1.6 1.5 1.6 4 1.4 5.4-0.3 6 2.6 11.4 6.5 14.5 4.3 4.1 10.5 4.6 14.1 3.7 1.5-0.3 1.5-1.5 1.4-2.2l-8-8.3c-2.3-2.8 0.1-7 1.6-8.3 1.2-1.3 4.9-3.3 6.9-2.3 1.6 0.6 2.6 2.3 2.6 2.3l7.1 6.7 1.5-0.5 0.4-1.1c1.4-3.9-0.1-10.8-3-13.9z"/>
  <path class="cls-8" d="m96 10.9-9.3 5.7-0.8 1.4-2 5.4c-0.3 0.7-0.8 1.3-1.3 1.8l-37.1 36.8 5 4.7 37.1-36.7c0.5-0.5 1-1 1.8-1.3 0 0 3.7-1.3 5.1-1.8 0.6-0.2 1.1-0.5 1.5-1.2l5.7-9.2c0.7-1.9-1-2.6-3.6-5.4-0.6-0.5-1.5-0.5-2.1-0.2z"/>
  <path class="cls-9" d="m99.8 13h0.1l-51.8 51.6 2.4 2.1 37.1-36.7c1.3-1 6-2.6 6.9-3.1 0.9-0.2 1.1-0.5 1.5-1.2l5.6-9c0.5-1.3-0.2-2-1.8-3.7z"/>
  <path class="cls-10" d="m32.5 67.5c-1-0.1-2.5 0.2-3.5 1.4l-20 20c-2.5 2.7-3 5.2-2.6 8.1 0.3 2.1 1.2 4.4 3.2 6.4 2.3 2.1 5.4 3 7.9 2.7 2.1-0.1 4.4-0.9 6.5-2.7l19.9-19.3c1.7-1.4 2.1-3.7 1.1-4.6l-12.5-12z"/>
  <path class="cls-11" d="m49.9 75.4c0.6 0.1 0 0 0.6 0l-13.1-12.9-0.3 1.6c-0.5 1.9-2.2 3.4-4.6 3.4l13 13v-0.9c0-2.2 2-4.2 4.4-4.2z"/>
  <path class="cls-10" d="m42.7 58.9c-0.7-0.7-2.1-0.7-3 0.1l-1.8 1.7c-0.9 1-0.8 2.3 0 2.7l11.8 11.6c0.7 0.6 1.8 0.4 2.4 0l1.6-1.6c0.9-0.8 0.9-1.9 0.2-3l-11.2-11.5z"/>
  <path class="cls-12" d="m10.5 94c-0.5 0-0.9-0.4-1.1-0.6-0.4-0.7-0.3-1.3 0.3-1.9l19.3-19.5c0.5-0.4 1.5-0.8 2.1 0 0.8 0.9 0.3 1.6-0.1 2.1l-19.4 19.5c-0.2 0.3-0.7 0.5-1.1 0.4z"/>
  <path class="cls-0" d="m33.1 99.5 10.9-10.5h-1l-9.9 10.5z"/>
  <path class="cls-11" d="m34.5 78.4-20.4 18.1c-1.1 1.1 0.9 3.1 2.3 1.6l19.2-19.1c1.4-1.1 0-3-1.1-0.6z"/>
  <path class="cls-11" d="m38.4 81.6-19.4 19.3c-1.4 1.5 0.6 3.5 2.1 2l19.4-19.2c1.5-1.3-0.5-3.6-2.1-2.1z"/>
  <path class="cls-6" d="m45 40c-1.1-1-3-1.1-4.3 0.1-1.1 1.3-1.3 3 0.3 4.4l10.6 11.6 4.3-4.4-10.9-11.7z"/>
  <path class="cls-7" d="m42 45.6c-1-1.5-0.5-3.6 1-4.4 1-0.6 2.4-0.6 3-0.2l-1-1c-1.1-1-3-1-4.3 0.1-1.1 1.3-1.3 3 0.4 4.4l0.9 1.1z"/>
  <path class="cls-6" d="m60 56.9 15 14.3c1 1.2 1 3.2-0.1 4.4-1.3 1.3-3.3 1.3-4.4 0.1l-14.1-14.6 3.6-4.2z"/>
  <path class="cls-13" d="m91.9 103"/>
  <path class="cls-14" d="m76.4 50.2c-0.9 3.3-0.9 3.5-4.8 4.7 3.9 1.1 3.8 1.1 4.8 4.7 1.2-3.7 0.7-3.5 4.6-4.6-3.4-1-3.4-1-4.6-4.8z"/>
  <path class="cls-0" d="m91 84c-2 0-4.5 1.4-5.6 2.4-1.4 1.6-3 5.1-2.4 6.6 0.1 0.9 0.9 1.7 1.1 2l1.8 1.6c-2-2.6 1.2-9.5 7.1-10 1.1-0.1 2 0.1 2.6 0.4l-2-2c-0.6-0.5-1.2-1-2.6-1z"/>
  <path class="cls-0" d="m98 28c-0.4 1-1.6 1.4-2.1 1.5-1.8 0.5-4.4 1.4-5.3 1.9-1.2 0.7-6.5 6.2-10.5 10.2l-2-2.9 9.5-9.1c0.9-0.6 3.4-1.6 6.9-2.7l1.6-1.5 1.9 2.6z"/>
  <path class="cls-0" d="m16.9 41.7c3 3 6.1 5.7 12.5 6-2.7 8.3-1.3 14.9 1.5 20.2l-4.8 3.7c-4.2-8.6-5.1-17.1-2.5-24.9-1.5-0.3-5-2.1-6.7-5z"/>
  <path class="cls-0" d="m41.7 15.9c2.8 3.7 4 7.7 3.5 13.7-0.2 3.3 1.3 4.8 3.8 6.9-1-1.5-1.1-3.6-1.1-3.6 8.5-3.9 16-3.2 25.1 1.1h0.1l4.4-4.1c-4.9-3.8-13.5-8.2-24.5-7.2l-6.1 1.3-1-2.5-2.9-4.6-1.3-1z"/>
  <path class="cls-0" d="m45.6 82c0.9 0.5 1.3 0.6 2.4 1.4 0 0.7 0 2.1-1.6 3.5l-1.7 1.7-8.3 7.8-3.4 3.1 8.4-8.5 3.3-3.1-2.7-1.9 1.6-1.6c0.9-0.3 2.1-1.4 2-2.4z"/>
  <path class="cls-15" d="m52.6 65 1.9 1.9 3.5-3.5-1.6-2.3-3.8 3.9z"/>
  <polygon class="cls-16" points="60 56.9 62.4 58.9 66.1 55.4 64.1 53.1"/>
</svg>